<mxfile host="65bd71144e">
    <diagram id="N5HLWM5-nte2UGCY-Z4j" name="Page-1">
        <mxGraphModel dx="840" dy="482" grid="1" gridSize="10" guides="1" tooltips="1" connect="1" arrows="1" fold="1" page="1" pageScale="1" pageWidth="850" pageHeight="1100" math="0" shadow="0">
            <root>
                <mxCell id="0"/>
                <mxCell id="1" parent="0"/>
                <mxCell id="2" value="" style="endArrow=none;html=1;strokeWidth=3;strokeColor=#CCCCCC;sketch=1;curveFitting=1;jiggle=2;opacity=70;" edge="1" parent="1">
                    <mxGeometry width="50" height="50" relative="1" as="geometry">
                        <mxPoint x="34" y="337.7" as="sourcePoint"/>
                        <mxPoint x="284" y="338" as="targetPoint"/>
                    </mxGeometry>
                </mxCell>
                <mxCell id="6" value="&lt;h1&gt;&lt;font face=&quot;Comic Sans MS&quot;&gt;AA&lt;font style=&quot;color: rgb(0, 153, 0);&quot;&gt;C&lt;/font&gt;TG&lt;/font&gt;&lt;/h1&gt;" style="edgeLabel;html=1;align=center;verticalAlign=middle;resizable=0;points=[];" vertex="1" connectable="0" parent="2">
                    <mxGeometry x="-0.7533" y="5" relative="1" as="geometry">
                        <mxPoint x="20" y="4" as="offset"/>
                    </mxGeometry>
                </mxCell>
                <mxCell id="12" value="&lt;h1&gt;&lt;font face=&quot;Comic Sans MS&quot;&gt;TA&lt;font style=&quot;color: rgb(0, 153, 0);&quot;&gt;C&lt;/font&gt;AG&lt;/font&gt;&lt;/h1&gt;" style="edgeLabel;html=1;align=center;verticalAlign=middle;resizable=0;points=[];" vertex="1" connectable="0" parent="2">
                    <mxGeometry x="-0.7533" y="5" relative="1" as="geometry">
                        <mxPoint x="97" y="2" as="offset"/>
                    </mxGeometry>
                </mxCell>
                <mxCell id="41" value="&lt;h1&gt;&lt;font face=&quot;Comic Sans MS&quot;&gt;AT&lt;font style=&quot;color: rgb(0, 153, 0);&quot;&gt;C&lt;/font&gt;GG&lt;/font&gt;&lt;/h1&gt;" style="edgeLabel;html=1;align=center;verticalAlign=middle;resizable=0;points=[];" vertex="1" connectable="0" parent="2">
                    <mxGeometry x="-0.7533" y="5" relative="1" as="geometry">
                        <mxPoint x="173" y="4" as="offset"/>
                    </mxGeometry>
                </mxCell>
                <mxCell id="7" value="" style="line;strokeWidth=2;direction=south;html=1;sketch=1;curveFitting=1;jiggle=2;fillColor=#f5f5f5;gradientColor=#b3b3b3;strokeColor=#666666;" vertex="1" parent="1">
                    <mxGeometry x="82" y="294" width="10" height="13" as="geometry"/>
                </mxCell>
                <mxCell id="8" value="&lt;div&gt;&lt;br&gt;&lt;/div&gt;&lt;div&gt;&lt;br&gt;&lt;/div&gt;&lt;div&gt;&lt;br&gt;&lt;/div&gt;&lt;div&gt;&lt;br&gt;&lt;/div&gt;&lt;div&gt;&lt;br&gt;&lt;/div&gt;&lt;div&gt;&lt;br&gt;&lt;/div&gt;&lt;div&gt;&lt;br&gt;&lt;/div&gt;&lt;div&gt;&lt;br&gt;&lt;/div&gt;&lt;div&gt;&lt;br&gt;&lt;/div&gt;&lt;div&gt;&lt;br&gt;&lt;/div&gt;&lt;div&gt;&lt;br&gt;&lt;/div&gt;&lt;div&gt;&lt;br&gt;&lt;/div&gt;" style="rhombus;whiteSpace=wrap;html=1;fillColor=#ffcd28;strokeColor=#d79b00;sketch=1;curveFitting=1;jiggle=2;gradientColor=#ffa500;" vertex="1" parent="1">
                    <mxGeometry x="74" y="270" width="26" height="24" as="geometry"/>
                </mxCell>
                <mxCell id="13" value="" style="line;strokeWidth=2;direction=south;html=1;sketch=1;curveFitting=1;jiggle=2;fillColor=#f5f5f5;gradientColor=#b3b3b3;strokeColor=#666666;" vertex="1" parent="1">
                    <mxGeometry x="158" y="295" width="10" height="13" as="geometry"/>
                </mxCell>
                <mxCell id="14" value="" style="rhombus;whiteSpace=wrap;html=1;fillColor=#ffcd28;strokeColor=#d79b00;sketch=1;curveFitting=1;jiggle=2;gradientColor=#ffa500;" vertex="1" parent="1">
                    <mxGeometry x="150" y="271" width="26" height="24" as="geometry"/>
                </mxCell>
                <mxCell id="22" value="" style="shape=waypoint;sketch=0;fillStyle=solid;size=6;pointerEvents=1;points=[];fillColor=none;resizable=0;rotatable=0;perimeter=centerPerimeter;snapToPoint=1;strokeColor=#CCCCCC;strokeWidth=0;" vertex="1" parent="1">
                    <mxGeometry x="287" y="328" width="20" height="20" as="geometry"/>
                </mxCell>
                <mxCell id="23" value="" style="shape=waypoint;sketch=0;fillStyle=solid;size=6;pointerEvents=1;points=[];fillColor=none;resizable=0;rotatable=0;perimeter=centerPerimeter;snapToPoint=1;strokeColor=#CCCCCC;strokeWidth=0;" vertex="1" parent="1">
                    <mxGeometry x="297" y="328" width="20" height="20" as="geometry"/>
                </mxCell>
                <mxCell id="24" value="" style="shape=waypoint;sketch=0;fillStyle=solid;size=6;pointerEvents=1;points=[];fillColor=none;resizable=0;rotatable=0;perimeter=centerPerimeter;snapToPoint=1;strokeColor=#CCCCCC;strokeWidth=0;" vertex="1" parent="1">
                    <mxGeometry x="306" y="328" width="20" height="20" as="geometry"/>
                </mxCell>
                <mxCell id="30" value="&lt;h1&gt;&lt;b&gt;&lt;font style=&quot;color: rgb(128, 128, 128);&quot;&gt;~&lt;/font&gt;&lt;/b&gt;&lt;/h1&gt;" style="text;html=1;align=center;verticalAlign=middle;resizable=0;points=[];autosize=1;strokeColor=none;fillColor=none;" vertex="1" parent="1">
                    <mxGeometry x="500" y="303" width="40" height="70" as="geometry"/>
                </mxCell>
                <mxCell id="31" value="&lt;font style=&quot;font-size: 22px; color: rgb(128, 128, 128);&quot; face=&quot;Comic Sans MS&quot;&gt;&lt;b style=&quot;&quot;&gt;2000 nucleotides&lt;/b&gt;&lt;/font&gt;" style="text;html=1;align=center;verticalAlign=middle;resizable=0;points=[];autosize=1;strokeColor=none;fillColor=none;" vertex="1" parent="1">
                    <mxGeometry x="526" y="315" width="200" height="40" as="geometry"/>
                </mxCell>
                <mxCell id="32" value="" style="endArrow=none;html=1;strokeWidth=3;strokeColor=#CCCCCC;sketch=1;curveFitting=1;jiggle=2;opacity=70;" edge="1" parent="1">
                    <mxGeometry width="50" height="50" relative="1" as="geometry">
                        <mxPoint x="329" y="337.7" as="sourcePoint"/>
                        <mxPoint x="503" y="338" as="targetPoint"/>
                    </mxGeometry>
                </mxCell>
                <mxCell id="33" value="&lt;h1&gt;&lt;font face=&quot;Comic Sans MS&quot;&gt;GT&lt;font style=&quot;color: rgb(0, 153, 0);&quot;&gt;C&lt;/font&gt;TT&lt;/font&gt;&lt;/h1&gt;" style="edgeLabel;html=1;align=center;verticalAlign=middle;resizable=0;points=[];" vertex="1" connectable="0" parent="32">
                    <mxGeometry x="-0.7533" y="5" relative="1" as="geometry">
                        <mxPoint x="26" y="3" as="offset"/>
                    </mxGeometry>
                </mxCell>
                <mxCell id="34" value="&lt;h1&gt;&lt;font face=&quot;Comic Sans MS&quot;&gt;GA&lt;font style=&quot;color: rgb(0, 153, 0);&quot;&gt;C&lt;/font&gt;TG&lt;/font&gt;&lt;/h1&gt;" style="edgeLabel;html=1;align=center;verticalAlign=middle;resizable=0;points=[];" vertex="1" connectable="0" parent="32">
                    <mxGeometry x="-0.7533" y="5" relative="1" as="geometry">
                        <mxPoint x="101" y="2" as="offset"/>
                    </mxGeometry>
                </mxCell>
                <mxCell id="35" value="" style="line;strokeWidth=2;direction=south;html=1;sketch=1;curveFitting=1;jiggle=2;fillColor=#f5f5f5;gradientColor=#b3b3b3;strokeColor=#666666;" vertex="1" parent="1">
                    <mxGeometry x="375" y="295" width="10" height="13" as="geometry"/>
                </mxCell>
                <mxCell id="36" value="" style="rhombus;whiteSpace=wrap;html=1;fillColor=#ffcd28;strokeColor=#d79b00;sketch=1;curveFitting=1;jiggle=2;gradientColor=#ffa500;" vertex="1" parent="1">
                    <mxGeometry x="367" y="271" width="26" height="24" as="geometry"/>
                </mxCell>
                <mxCell id="37" value="" style="line;strokeWidth=2;direction=south;html=1;sketch=1;curveFitting=1;jiggle=2;fillColor=#f5f5f5;gradientColor=#b3b3b3;strokeColor=#666666;" vertex="1" parent="1">
                    <mxGeometry x="448" y="295" width="10" height="13" as="geometry"/>
                </mxCell>
                <mxCell id="38" value="" style="rhombus;whiteSpace=wrap;html=1;fillColor=#ffcd28;strokeColor=#d79b00;sketch=1;curveFitting=1;jiggle=2;gradientColor=#ffa500;" vertex="1" parent="1">
                    <mxGeometry x="440" y="271" width="26" height="24" as="geometry"/>
                </mxCell>
                <mxCell id="42" value="" style="line;strokeWidth=2;direction=south;html=1;sketch=1;curveFitting=1;jiggle=2;fillColor=#f5f5f5;gradientColor=#b3b3b3;strokeColor=#666666;" vertex="1" parent="1">
                    <mxGeometry x="234" y="295" width="10" height="13" as="geometry"/>
                </mxCell>
                <mxCell id="43" value="" style="rhombus;whiteSpace=wrap;html=1;fillColor=#ffcd28;strokeColor=#d79b00;sketch=1;curveFitting=1;jiggle=2;gradientColor=#ffa500;" vertex="1" parent="1">
                    <mxGeometry x="226" y="271" width="26" height="24" as="geometry"/>
                </mxCell>
                <mxCell id="103" value="" style="shape=partialRectangle;whiteSpace=wrap;html=1;bottom=1;right=1;left=1;top=0;fillColor=none;routingCenterX=-0.5;sketch=1;curveFitting=1;jiggle=2;flipV=1;strokeColor=#808080;" vertex="1" parent="1">
                    <mxGeometry x="51" y="309" width="70" height="13" as="geometry"/>
                </mxCell>
                <mxCell id="109" value="" style="shape=partialRectangle;whiteSpace=wrap;html=1;bottom=1;right=1;left=1;top=0;fillColor=none;routingCenterX=-0.5;sketch=1;curveFitting=1;jiggle=2;flipV=1;strokeColor=#808080;" vertex="1" parent="1">
                    <mxGeometry x="126" y="309" width="70" height="13" as="geometry"/>
                </mxCell>
                <mxCell id="110" value="" style="shape=partialRectangle;whiteSpace=wrap;html=1;bottom=1;right=1;left=1;top=0;fillColor=none;routingCenterX=-0.5;sketch=1;curveFitting=1;jiggle=2;flipV=1;strokeColor=#808080;" vertex="1" parent="1">
                    <mxGeometry x="204" y="309" width="70" height="13" as="geometry"/>
                </mxCell>
                <mxCell id="111" value="" style="shape=partialRectangle;whiteSpace=wrap;html=1;bottom=1;right=1;left=1;top=0;fillColor=none;routingCenterX=-0.5;sketch=1;curveFitting=1;jiggle=2;flipV=1;strokeColor=#808080;" vertex="1" parent="1">
                    <mxGeometry x="344" y="310" width="70" height="13" as="geometry"/>
                </mxCell>
                <mxCell id="112" value="" style="shape=partialRectangle;whiteSpace=wrap;html=1;bottom=1;right=1;left=1;top=0;fillColor=none;routingCenterX=-0.5;sketch=1;curveFitting=1;jiggle=2;flipV=1;strokeColor=#808080;" vertex="1" parent="1">
                    <mxGeometry x="419" y="310" width="70" height="13" as="geometry"/>
                </mxCell>
                <mxCell id="113" value="" style="line;strokeWidth=2;direction=south;html=1;sketch=1;curveFitting=1;jiggle=2;fillColor=#f5f5f5;gradientColor=#b3b3b3;strokeColor=#666666;" vertex="1" parent="1">
                    <mxGeometry x="363" y="531" width="10" height="13" as="geometry"/>
                </mxCell>
                <mxCell id="114" value="" style="rhombus;whiteSpace=wrap;html=1;fillColor=#ffcd28;strokeColor=#d79b00;sketch=1;curveFitting=1;jiggle=2;gradientColor=#ffa500;" vertex="1" parent="1">
                    <mxGeometry x="355" y="507" width="26" height="24" as="geometry"/>
                </mxCell>
                <mxCell id="115" value="" style="shape=partialRectangle;whiteSpace=wrap;html=1;bottom=1;right=1;left=1;top=0;fillColor=none;routingCenterX=-0.5;sketch=1;curveFitting=1;jiggle=2;flipV=1;strokeColor=#808080;" vertex="1" parent="1">
                    <mxGeometry x="333" y="545" width="70" height="13" as="geometry"/>
                </mxCell>
                <mxCell id="116" value="" style="line;strokeWidth=2;direction=south;html=1;sketch=1;curveFitting=1;jiggle=2;fillColor=#f5f5f5;gradientColor=#b3b3b3;strokeColor=#666666;" vertex="1" parent="1">
                    <mxGeometry x="70" y="539" width="10" height="13" as="geometry"/>
                </mxCell>
                <mxCell id="117" value="" style="rhombus;whiteSpace=wrap;html=1;fillColor=#ffcd28;strokeColor=#d79b00;sketch=1;curveFitting=1;jiggle=2;gradientColor=#ffa500;" vertex="1" parent="1">
                    <mxGeometry x="62" y="515" width="26" height="24" as="geometry"/>
                </mxCell>
                <mxCell id="120" value="&lt;font face=&quot;Comic Sans MS&quot; style=&quot;font-size: 24px; color: rgb(128, 128, 128);&quot;&gt;=&lt;/font&gt;" style="text;html=1;align=center;verticalAlign=middle;resizable=0;points=[];autosize=1;strokeColor=none;fillColor=none;" vertex="1" parent="1">
                    <mxGeometry x="92" y="525.5" width="40" height="40" as="geometry"/>
                </mxCell>
                <mxCell id="121" value="&lt;font style=&quot;color: rgb(128, 128, 128);&quot;&gt;&lt;b&gt;^&lt;/b&gt;&lt;/font&gt;" style="text;html=1;align=center;verticalAlign=middle;resizable=0;points=[];autosize=1;strokeColor=none;fillColor=none;" vertex="1" parent="1">
                    <mxGeometry x="97" y="524" width="30" height="30" as="geometry"/>
                </mxCell>
                <mxCell id="122" value="&lt;font style=&quot;font-size: 22px; color: rgb(128, 128, 128);&quot; face=&quot;Comic Sans MS&quot;&gt;&lt;b style=&quot;&quot;&gt;modification&lt;/b&gt;&lt;/font&gt;" style="text;html=1;align=center;verticalAlign=middle;resizable=0;points=[];autosize=1;strokeColor=none;fillColor=none;" vertex="1" parent="1">
                    <mxGeometry x="121" y="524" width="150" height="40" as="geometry"/>
                </mxCell>
                <mxCell id="123" value="&lt;font style=&quot;color: rgb(128, 128, 128);&quot;&gt;&lt;b&gt;^&lt;/b&gt;&lt;/font&gt;" style="text;html=1;align=center;verticalAlign=middle;resizable=0;points=[];autosize=1;strokeColor=none;fillColor=none;" vertex="1" parent="1">
                    <mxGeometry x="410" y="522.5" width="30" height="30" as="geometry"/>
                </mxCell>
                <mxCell id="124" value="&lt;font face=&quot;Comic Sans MS&quot; style=&quot;font-size: 24px; color: rgb(128, 128, 128);&quot;&gt;=&lt;/font&gt;" style="text;html=1;align=center;verticalAlign=middle;resizable=0;points=[];autosize=1;strokeColor=none;fillColor=none;" vertex="1" parent="1">
                    <mxGeometry x="405" y="526" width="40" height="40" as="geometry"/>
                </mxCell>
                <mxCell id="127" value="&lt;font style=&quot;font-size: 22px;&quot; face=&quot;Comic Sans MS&quot;&gt;&lt;b style=&quot;&quot;&gt;&lt;font style=&quot;color: rgb(0, 0, 0);&quot;&gt;DD&lt;/font&gt;&lt;font style=&quot;color: rgb(0, 153, 0);&quot;&gt;C&lt;/font&gt;&lt;font style=&quot;color: rgb(255, 128, 0);&quot;&gt;*&lt;/font&gt;&lt;font style=&quot;color: rgb(0, 0, 0);&quot;&gt;DD&lt;/font&gt;&lt;/b&gt;&lt;/font&gt;" style="text;html=1;align=center;verticalAlign=middle;resizable=0;points=[];autosize=1;strokeColor=none;fillColor=none;" vertex="1" parent="1">
                    <mxGeometry x="440" y="526" width="110" height="40" as="geometry"/>
                </mxCell>
                <mxCell id="128" value="" style="line;strokeWidth=2;direction=south;html=1;sketch=1;curveFitting=1;jiggle=2;fillColor=#f5f5f5;gradientColor=#b3b3b3;strokeColor=#666666;" vertex="1" parent="1">
                    <mxGeometry x="362" y="604" width="10" height="13" as="geometry"/>
                </mxCell>
                <mxCell id="129" value="" style="rhombus;whiteSpace=wrap;html=1;fillColor=#ffcd28;strokeColor=#d79b00;sketch=1;curveFitting=1;jiggle=2;gradientColor=#ffa500;" vertex="1" parent="1">
                    <mxGeometry x="354" y="580" width="26" height="24" as="geometry"/>
                </mxCell>
                <mxCell id="130" value="" style="shape=partialRectangle;whiteSpace=wrap;html=1;bottom=1;right=1;left=1;top=0;fillColor=none;routingCenterX=-0.5;sketch=1;curveFitting=1;jiggle=2;flipV=1;strokeColor=#808080;" vertex="1" parent="1">
                    <mxGeometry x="332" y="618" width="70" height="13" as="geometry"/>
                </mxCell>
                <mxCell id="131" value="&lt;font style=&quot;color: rgb(128, 128, 128);&quot;&gt;&lt;b&gt;^&lt;/b&gt;&lt;/font&gt;" style="text;html=1;align=center;verticalAlign=middle;resizable=0;points=[];autosize=1;strokeColor=none;fillColor=none;" vertex="1" parent="1">
                    <mxGeometry x="409" y="595.5" width="30" height="30" as="geometry"/>
                </mxCell>
                <mxCell id="132" value="&lt;font face=&quot;Comic Sans MS&quot; style=&quot;font-size: 24px; color: rgb(128, 128, 128);&quot;&gt;=&lt;/font&gt;" style="text;html=1;align=center;verticalAlign=middle;resizable=0;points=[];autosize=1;strokeColor=none;fillColor=none;" vertex="1" parent="1">
                    <mxGeometry x="404" y="599" width="40" height="40" as="geometry"/>
                </mxCell>
                <mxCell id="133" value="&lt;font style=&quot;font-size: 22px;&quot; face=&quot;Comic Sans MS&quot;&gt;&lt;b style=&quot;&quot;&gt;&lt;font style=&quot;color: rgb(0, 0, 0);&quot;&gt;VV&lt;/font&gt;&lt;font style=&quot;color: rgb(0, 127, 255);&quot;&gt;U&lt;/font&gt;&lt;font style=&quot;color: rgb(255, 128, 0);&quot;&gt;*&lt;/font&gt;&lt;font style=&quot;color: rgb(0, 0, 0);&quot;&gt;V&lt;/font&gt;&lt;font style=&quot;color: rgb(0, 0, 0);&quot;&gt;V&lt;/font&gt;&lt;/b&gt;&lt;/font&gt;" style="text;html=1;align=center;verticalAlign=middle;resizable=0;points=[];autosize=1;strokeColor=none;fillColor=none;" vertex="1" parent="1">
                    <mxGeometry x="439" y="599" width="110" height="40" as="geometry"/>
                </mxCell>
                <mxCell id="134" value="" style="endArrow=none;html=1;strokeWidth=3;strokeColor=#CCCCCC;sketch=1;curveFitting=1;jiggle=2;opacity=70;" edge="1" parent="1">
                    <mxGeometry width="50" height="50" relative="1" as="geometry">
                        <mxPoint x="29" y="455.7" as="sourcePoint"/>
                        <mxPoint x="279" y="456" as="targetPoint"/>
                    </mxGeometry>
                </mxCell>
                <mxCell id="135" value="&lt;h1&gt;&lt;font face=&quot;Comic Sans MS&quot;&gt;AA&lt;font style=&quot;color: rgb(0, 127, 255);&quot;&gt;U&lt;/font&gt;&lt;font style=&quot;color: rgb(0, 0, 0);&quot;&gt;C&lt;/font&gt;G&lt;/font&gt;&lt;/h1&gt;" style="edgeLabel;html=1;align=center;verticalAlign=middle;resizable=0;points=[];" vertex="1" connectable="0" parent="134">
                    <mxGeometry x="-0.7533" y="5" relative="1" as="geometry">
                        <mxPoint x="20" y="4" as="offset"/>
                    </mxGeometry>
                </mxCell>
                <mxCell id="136" value="&lt;h1&gt;&lt;font face=&quot;Comic Sans MS&quot;&gt;CA&lt;font style=&quot;color: rgb(0, 127, 255);&quot;&gt;U&lt;/font&gt;AG&lt;/font&gt;&lt;/h1&gt;" style="edgeLabel;html=1;align=center;verticalAlign=middle;resizable=0;points=[];" vertex="1" connectable="0" parent="134">
                    <mxGeometry x="-0.7533" y="5" relative="1" as="geometry">
                        <mxPoint x="97" y="2" as="offset"/>
                    </mxGeometry>
                </mxCell>
                <mxCell id="137" value="&lt;h1&gt;&lt;font face=&quot;Comic Sans MS&quot;&gt;AC&lt;font style=&quot;color: rgb(0, 127, 255);&quot;&gt;U&lt;/font&gt;GG&lt;/font&gt;&lt;/h1&gt;" style="edgeLabel;html=1;align=center;verticalAlign=middle;resizable=0;points=[];" vertex="1" connectable="0" parent="134">
                    <mxGeometry x="-0.7533" y="5" relative="1" as="geometry">
                        <mxPoint x="173" y="4" as="offset"/>
                    </mxGeometry>
                </mxCell>
                <mxCell id="138" value="" style="line;strokeWidth=2;direction=south;html=1;sketch=1;curveFitting=1;jiggle=2;fillColor=#f5f5f5;gradientColor=#b3b3b3;strokeColor=#666666;" vertex="1" parent="1">
                    <mxGeometry x="77" y="412" width="10" height="13" as="geometry"/>
                </mxCell>
                <mxCell id="139" value="&lt;div&gt;&lt;br&gt;&lt;/div&gt;&lt;div&gt;&lt;br&gt;&lt;/div&gt;&lt;div&gt;&lt;br&gt;&lt;/div&gt;&lt;div&gt;&lt;br&gt;&lt;/div&gt;&lt;div&gt;&lt;br&gt;&lt;/div&gt;&lt;div&gt;&lt;br&gt;&lt;/div&gt;&lt;div&gt;&lt;br&gt;&lt;/div&gt;&lt;div&gt;&lt;br&gt;&lt;/div&gt;&lt;div&gt;&lt;br&gt;&lt;/div&gt;&lt;div&gt;&lt;br&gt;&lt;/div&gt;&lt;div&gt;&lt;br&gt;&lt;/div&gt;&lt;div&gt;&lt;br&gt;&lt;/div&gt;" style="rhombus;whiteSpace=wrap;html=1;fillColor=#ffcd28;strokeColor=#d79b00;sketch=1;curveFitting=1;jiggle=2;gradientColor=#ffa500;" vertex="1" parent="1">
                    <mxGeometry x="69" y="387" width="26" height="24" as="geometry"/>
                </mxCell>
                <mxCell id="140" value="" style="line;strokeWidth=2;direction=south;html=1;sketch=1;curveFitting=1;jiggle=2;fillColor=#f5f5f5;gradientColor=#b3b3b3;strokeColor=#666666;" vertex="1" parent="1">
                    <mxGeometry x="153" y="413" width="10" height="13" as="geometry"/>
                </mxCell>
                <mxCell id="141" value="" style="rhombus;whiteSpace=wrap;html=1;fillColor=#ffcd28;strokeColor=#d79b00;sketch=1;curveFitting=1;jiggle=2;gradientColor=#ffa500;" vertex="1" parent="1">
                    <mxGeometry x="145" y="388" width="26" height="24" as="geometry"/>
                </mxCell>
                <mxCell id="142" value="" style="shape=waypoint;sketch=0;fillStyle=solid;size=6;pointerEvents=1;points=[];fillColor=none;resizable=0;rotatable=0;perimeter=centerPerimeter;snapToPoint=1;strokeColor=#CCCCCC;strokeWidth=0;" vertex="1" parent="1">
                    <mxGeometry x="282" y="446" width="20" height="20" as="geometry"/>
                </mxCell>
                <mxCell id="143" value="" style="shape=waypoint;sketch=0;fillStyle=solid;size=6;pointerEvents=1;points=[];fillColor=none;resizable=0;rotatable=0;perimeter=centerPerimeter;snapToPoint=1;strokeColor=#CCCCCC;strokeWidth=0;" vertex="1" parent="1">
                    <mxGeometry x="292" y="446" width="20" height="20" as="geometry"/>
                </mxCell>
                <mxCell id="144" value="" style="shape=waypoint;sketch=0;fillStyle=solid;size=6;pointerEvents=1;points=[];fillColor=none;resizable=0;rotatable=0;perimeter=centerPerimeter;snapToPoint=1;strokeColor=#CCCCCC;strokeWidth=0;" vertex="1" parent="1">
                    <mxGeometry x="301" y="446" width="20" height="20" as="geometry"/>
                </mxCell>
                <mxCell id="145" value="&lt;h1&gt;&lt;b&gt;&lt;font style=&quot;color: rgb(128, 128, 128);&quot;&gt;~&lt;/font&gt;&lt;/b&gt;&lt;/h1&gt;" style="text;html=1;align=center;verticalAlign=middle;resizable=0;points=[];autosize=1;strokeColor=none;fillColor=none;" vertex="1" parent="1">
                    <mxGeometry x="495" y="421" width="40" height="70" as="geometry"/>
                </mxCell>
                <mxCell id="146" value="&lt;font style=&quot;font-size: 22px; color: rgb(128, 128, 128);&quot; face=&quot;Comic Sans MS&quot;&gt;&lt;b style=&quot;&quot;&gt;2000 nucleotides&lt;/b&gt;&lt;/font&gt;" style="text;html=1;align=center;verticalAlign=middle;resizable=0;points=[];autosize=1;strokeColor=none;fillColor=none;" vertex="1" parent="1">
                    <mxGeometry x="521" y="433" width="200" height="40" as="geometry"/>
                </mxCell>
                <mxCell id="147" value="" style="endArrow=none;html=1;strokeWidth=3;strokeColor=#CCCCCC;sketch=1;curveFitting=1;jiggle=2;opacity=70;" edge="1" parent="1">
                    <mxGeometry width="50" height="50" relative="1" as="geometry">
                        <mxPoint x="324" y="455.7" as="sourcePoint"/>
                        <mxPoint x="498" y="456" as="targetPoint"/>
                    </mxGeometry>
                </mxCell>
                <mxCell id="148" value="&lt;h1&gt;&lt;font face=&quot;Comic Sans MS&quot;&gt;GC&lt;font style=&quot;color: rgb(0, 127, 255);&quot;&gt;U&lt;/font&gt;&lt;font style=&quot;color: rgb(0, 0, 0);&quot;&gt;CC&lt;/font&gt;&lt;/font&gt;&lt;/h1&gt;" style="edgeLabel;html=1;align=center;verticalAlign=middle;resizable=0;points=[];" vertex="1" connectable="0" parent="147">
                    <mxGeometry x="-0.7533" y="5" relative="1" as="geometry">
                        <mxPoint x="26" y="3" as="offset"/>
                    </mxGeometry>
                </mxCell>
                <mxCell id="149" value="&lt;h1&gt;&lt;font face=&quot;Comic Sans MS&quot;&gt;GA&lt;font style=&quot;color: rgb(0, 127, 255);&quot;&gt;U&lt;/font&gt;&lt;font style=&quot;color: rgb(0, 0, 0);&quot;&gt;C&lt;/font&gt;G&lt;/font&gt;&lt;/h1&gt;" style="edgeLabel;html=1;align=center;verticalAlign=middle;resizable=0;points=[];" vertex="1" connectable="0" parent="147">
                    <mxGeometry x="-0.7533" y="5" relative="1" as="geometry">
                        <mxPoint x="101" y="2" as="offset"/>
                    </mxGeometry>
                </mxCell>
                <mxCell id="150" value="" style="line;strokeWidth=2;direction=south;html=1;sketch=1;curveFitting=1;jiggle=2;fillColor=#f5f5f5;gradientColor=#b3b3b3;strokeColor=#666666;" vertex="1" parent="1">
                    <mxGeometry x="370" y="413" width="10" height="13" as="geometry"/>
                </mxCell>
                <mxCell id="151" value="" style="rhombus;whiteSpace=wrap;html=1;fillColor=#ffcd28;strokeColor=#d79b00;sketch=1;curveFitting=1;jiggle=2;gradientColor=#ffa500;" vertex="1" parent="1">
                    <mxGeometry x="362" y="388" width="26" height="24" as="geometry"/>
                </mxCell>
                <mxCell id="152" value="" style="line;strokeWidth=2;direction=south;html=1;sketch=1;curveFitting=1;jiggle=2;fillColor=#f5f5f5;gradientColor=#b3b3b3;strokeColor=#666666;" vertex="1" parent="1">
                    <mxGeometry x="443" y="413" width="10" height="13" as="geometry"/>
                </mxCell>
                <mxCell id="153" value="" style="rhombus;whiteSpace=wrap;html=1;fillColor=#ffcd28;strokeColor=#d79b00;sketch=1;curveFitting=1;jiggle=2;gradientColor=#ffa500;" vertex="1" parent="1">
                    <mxGeometry x="435" y="388" width="26" height="24" as="geometry"/>
                </mxCell>
                <mxCell id="154" value="" style="line;strokeWidth=2;direction=south;html=1;sketch=1;curveFitting=1;jiggle=2;fillColor=#f5f5f5;gradientColor=#b3b3b3;strokeColor=#666666;" vertex="1" parent="1">
                    <mxGeometry x="229" y="413" width="10" height="13" as="geometry"/>
                </mxCell>
                <mxCell id="155" value="" style="rhombus;whiteSpace=wrap;html=1;fillColor=#ffcd28;strokeColor=#d79b00;sketch=1;curveFitting=1;jiggle=2;gradientColor=#ffa500;" vertex="1" parent="1">
                    <mxGeometry x="221" y="388" width="26" height="24" as="geometry"/>
                </mxCell>
                <mxCell id="156" value="" style="shape=partialRectangle;whiteSpace=wrap;html=1;bottom=1;right=1;left=1;top=0;fillColor=none;routingCenterX=-0.5;sketch=1;curveFitting=1;jiggle=2;flipV=1;strokeColor=#808080;" vertex="1" parent="1">
                    <mxGeometry x="46" y="427" width="70" height="13" as="geometry"/>
                </mxCell>
                <mxCell id="157" value="" style="shape=partialRectangle;whiteSpace=wrap;html=1;bottom=1;right=1;left=1;top=0;fillColor=none;routingCenterX=-0.5;sketch=1;curveFitting=1;jiggle=2;flipV=1;strokeColor=#808080;" vertex="1" parent="1">
                    <mxGeometry x="121" y="427" width="70" height="13" as="geometry"/>
                </mxCell>
                <mxCell id="158" value="" style="shape=partialRectangle;whiteSpace=wrap;html=1;bottom=1;right=1;left=1;top=0;fillColor=none;routingCenterX=-0.5;sketch=1;curveFitting=1;jiggle=2;flipV=1;strokeColor=#808080;" vertex="1" parent="1">
                    <mxGeometry x="199" y="427" width="70" height="13" as="geometry"/>
                </mxCell>
                <mxCell id="159" value="" style="shape=partialRectangle;whiteSpace=wrap;html=1;bottom=1;right=1;left=1;top=0;fillColor=none;routingCenterX=-0.5;sketch=1;curveFitting=1;jiggle=2;flipV=1;strokeColor=#808080;" vertex="1" parent="1">
                    <mxGeometry x="339" y="428" width="70" height="13" as="geometry"/>
                </mxCell>
                <mxCell id="160" value="" style="shape=partialRectangle;whiteSpace=wrap;html=1;bottom=1;right=1;left=1;top=0;fillColor=none;routingCenterX=-0.5;sketch=1;curveFitting=1;jiggle=2;flipV=1;strokeColor=#808080;" vertex="1" parent="1">
                    <mxGeometry x="414" y="428" width="70" height="13" as="geometry"/>
                </mxCell>
            </root>
        </mxGraphModel>
    </diagram>
</mxfile>